<?xml version="1.0" encoding="UTF-8" standalone="no"?>
<!-- Generator: Adobe Illustrator 24.3.0, SVG Export Plug-In . SVG Version: 6.00 Build 0)  -->

<svg
   version="1.1"
   id="Layer_1"
   x="0px"
   y="0px"
   viewBox="0 0 250 150"
   style="enable-background:new 0 0 250 150;"
   xml:space="preserve"
   sodipodi:docname="Allyque Care integrated services logo without text size 250x150.svg"
   inkscape:version="1.4.2 (ebf0e940, 2025-05-08)"
   xmlns:inkscape="http://www.inkscape.org/namespaces/inkscape"
   xmlns:sodipodi="http://sodipodi.sourceforge.net/DTD/sodipodi-0.dtd"
   xmlns="http://www.w3.org/2000/svg"
   xmlns:svg="http://www.w3.org/2000/svg"><defs
   id="defs37" /><sodipodi:namedview
   id="namedview37"
   pagecolor="#ffffff"
   bordercolor="#cccccc"
   borderopacity="1"
   inkscape:showpageshadow="0"
   inkscape:pageopacity="1"
   inkscape:pagecheckerboard="0"
   inkscape:deskcolor="#d1d1d1"
   inkscape:zoom="3.328"
   inkscape:cx="125"
   inkscape:cy="74.969952"
   inkscape:window-width="1920"
   inkscape:window-height="1080"
   inkscape:window-x="1080"
   inkscape:window-y="537"
   inkscape:window-maximized="0"
   inkscape:current-layer="Layer_1" />
<style
   type="text/css"
   id="style1">
	.st0{fill:url(#SVGID_1_);}
	.st1{fill:#1C3866;}
	.st2{fill:#0A6FB7;}
	.st3{display:none;}
	.st4{display:inline;}
</style>
<g
   id="g4"
   transform="translate(0.90144231,4.8076923)">
	<g
   id="g2">
		<path
   d="m 136.61,59.14 c -0.01,-8.25 6.2,-14.57 14.4,-14.66 7.92,-0.09 14.74,6.49 14.91,14.39 0.19,8.64 -6,15.09 -14.45,15.06 -8.46,-0.03 -14.85,-6.39 -14.86,-14.79 z"
   id="path1" />
		<linearGradient
   id="SVGID_1_"
   gradientUnits="userSpaceOnUse"
   x1="151.4254"
   y1="51.934601"
   x2="150.806"
   y2="81.245201">
			<stop
   offset="0"
   style="stop-color:#0A6FB7"
   id="stop1" />
			<stop
   offset="1"
   style="stop-color:#1C3866"
   id="stop2" />
		</linearGradient>
		<path
   class="st0"
   d="m 136.61,59.14 c -0.01,-8.25 6.2,-14.57 14.4,-14.66 7.92,-0.09 14.74,6.49 14.91,14.39 0.19,8.64 -6,15.09 -14.45,15.06 -8.46,-0.03 -14.85,-6.39 -14.86,-14.79 z"
   id="path2"
   style="fill:url(#SVGID_1_)" />
	</g>
	<path
   class="st1"
   d="m 190.13,32.05 c 1.65,4.21 2.57,8.79 2.57,13.58 0,18.56 -13.6,33.94 -31.38,36.72 -2.45,0.49 -5.09,0.65 -7.91,0.39 -5.54,-0.31 -10.75,-1.83 -15.38,-4.31 -3.13,-1.23 -6.22,-2.55 -9.33,-3.81 -10.18,-4.15 -20.43,-5.63 -31.73,-1.49 1.41,0.49 2.24,0.83 3.09,1.07 24.78,7.27 35.96,28.96 27.44,53.3 -1.26,3.6 -2.66,7.16 -4.45,11.94 21.65,-11.74 40.17,-25.45 54.55,-44.2 9.55,-12.45 15.71,-26.34 16.64,-42.17 0.45,-7.66 -1.04,-14.85 -4.11,-21.02 z"
   id="path3" />
	<path
   class="st2"
   d="m 187.98,30.62 c -3.93,-7.88 -10.44,-14.1 -18.83,-17.55 -13.77,-5.67 -30.06,-1.33 -41.3,11.05 -1.45,1.6 -2.75,3.34 -4.34,5.29 -0.89,-1.27 -1.52,-2.14 -2.13,-3.04 -0.11,-0.17 -0.24,-0.32 -0.35,-0.49 C 108.01,7.28 83.03,5.16 67.04,21.47 54.68,34.08 52.2,53.95 60.62,72.39 c 7.43,16.27 19.73,28.62 32.75,40.3 7.33,6.57 15.96,13.83 23.2,21.38 1.04,1.09 4.41,5.46 4.41,5.46 0.64,-1.49 0.99,-8.3 -0.17,-11.6 -1.39,-3.95 -5.7,-7.53 -6.97,-8.73 C 103.18,109.06 94.16,100.11 84.21,89.32 74.5,78.78 66.85,66.77 66.2,51.6 65.37,31.92 81.43,17.44 99.7,21.71 c 7.62,1.78 13.17,6.51 17.94,12.28 0.49,0.6 0.98,1.2 1.46,1.81 1.7,2.2 3.4,4.4 4.93,6.38 3.92,-4.52 7.07,-9.04 11.08,-12.62 17.95,-16.03 40.45,-8.73 45.7,14.73 0.68,3.06 0.7,6.38 0.44,9.53 -0.94,11.62 -8.73,24.4 -22.06,27.09 17.78,-2.78 31.38,-18.16 31.38,-36.72 -0.01,-4.78 -0.93,-9.36 -2.59,-13.57 z"
   id="path4" />
</g>
<g
   class="st3"
   id="g37">
	<g
   class="st4"
   id="g15">
		<path
   class="st1"
   d="M47.45,117.48h-7.88l-1.5,3.63h-4.02l7.56-16.96h3.88l7.58,16.96h-4.12L47.45,117.48z M46.22,114.5L43.53,108    l-2.69,6.49H46.22z"
   id="path5" />
		<path
   class="st1"
   d="M54.85,104.15h3.93v13.76h8.51v3.2H54.85V104.15z"
   id="path6" />
		<path
   class="st1"
   d="M69.48,104.15h3.93v13.76h8.51v3.2H69.48V104.15z"
   id="path7" />
		<path
   class="st1"
   d="M90.52,115.1v6.01h-3.93v-6.06l-6.57-10.9h4.17l4.53,7.54l4.53-7.54h3.85L90.52,115.1z"
   id="path8" />
		<path
   class="st1"
   d="M116.37,122.93c-1.11,1.36-2.71,2.08-4.58,2.08c-2.52,0-4.29-0.92-6.91-3.68c-4.65-0.58-7.92-4.09-7.92-8.7    c0-5.04,3.93-8.77,9.28-8.77c5.33,0,9.28,3.71,9.28,8.77c0,3.97-2.45,7.12-6.06,8.29c0.82,0.87,1.55,1.19,2.4,1.19    c1.04,0,1.96-0.41,2.76-1.26L116.37,122.93z M106.24,118.06c3.03,0,5.31-2.21,5.31-5.43s-2.28-5.43-5.31-5.43    s-5.31,2.21-5.31,5.43S103.21,118.06,106.24,118.06z"
   id="path9" />
		<path
   class="st1"
   d="M118.34,113.65v-9.5h3.93v9.35c0,3.22,1.41,4.56,3.78,4.56c2.4,0,3.78-1.33,3.78-4.56v-9.35h3.88v9.5    c0,4.99-2.86,7.75-7.68,7.75S118.34,118.64,118.34,113.65z"
   id="path10" />
		<path
   class="st1"
   d="M150.71,117.96v3.15h-13.13v-16.96h12.82v3.15h-8.92v3.68h7.88v3.05h-7.88v3.92H150.71z"
   id="path11" />
		<path
   class="st1"
   d="M159.63,112.63c0-5.11,3.92-8.77,9.21-8.77c2.93,0,5.38,1.07,6.98,3l-2.52,2.33    c-1.14-1.31-2.57-1.99-4.26-1.99c-3.17,0-5.43,2.23-5.43,5.43c0,3.2,2.25,5.43,5.43,5.43c1.7,0,3.13-0.68,4.26-2.01l2.52,2.33    c-1.6,1.96-4.05,3.03-7,3.03C163.56,121.4,159.63,117.74,159.63,112.63z"
   id="path12" />
		<path
   class="st1"
   d="M189.29,117.48h-7.88l-1.5,3.63h-4.02l7.56-16.96h3.88l7.58,16.96h-4.12L189.29,117.48z M188.06,114.5    l-2.69-6.49l-2.69,6.49H188.06z"
   id="path13" />
		<path
   class="st1"
   d="M207.49,121.11l-3.27-4.72h-0.19h-3.42v4.72h-3.93v-16.96h7.34c4.53,0,7.37,2.35,7.37,6.16    c0,2.54-1.28,4.41-3.49,5.35l3.8,5.45H207.49z M203.81,107.35h-3.2v5.91h3.2c2.4,0,3.61-1.12,3.61-2.96    C207.42,108.44,206.21,107.35,203.81,107.35z"
   id="path14" />
		<path
   class="st1"
   d="M227.63,117.96v3.15H214.5v-16.96h12.82v3.15h-8.92v3.68h7.88v3.05h-7.88v3.92H227.63z"
   id="path15" />
	</g>
	<g
   class="st4"
   id="g36">
		<path
   class="st1"
   d="M49.49,130.16h1.14v6.14h-1.14V130.16z"
   id="path16" />
		<path
   class="st1"
   d="M59.5,130.16v6.14h-0.94l-3.39-4.16v4.16h-1.13v-6.14h0.94l3.39,4.16v-4.16H59.5z"
   id="path17" />
		<path
   class="st1"
   d="M64.15,131.13h-2.04v-0.96h5.21v0.96h-2.04v5.18h-1.14V131.13z"
   id="path18" />
		<path
   class="st1"
   d="M74.54,135.35v0.96h-4.61v-6.14h4.48v0.96h-3.34v1.6h2.97v0.94h-2.97v1.69H74.54z"
   id="path19" />
		<path
   class="st1"
   d="M81.73,133.16h1.08v2.45c-0.64,0.52-1.54,0.78-2.4,0.78c-1.9,0-3.31-1.33-3.31-3.16    c0-1.83,1.4-3.16,3.33-3.16c1.03,0,1.89,0.34,2.47,1l-0.72,0.7c-0.48-0.48-1.04-0.7-1.69-0.7c-1.31,0-2.23,0.89-2.23,2.16    c0,1.25,0.92,2.16,2.22,2.16c0.44,0,0.87-0.09,1.26-0.32V133.16z"
   id="path20" />
		<path
   class="st1"
   d="M90.08,136.3l-1.25-1.8c-0.08,0.01-0.16,0.01-0.24,0.01H87.2v1.79h-1.14v-6.14h2.53    c1.61,0,2.61,0.82,2.61,2.18c0,0.93-0.47,1.61-1.31,1.94l1.41,2.02H90.08z M88.54,131.13H87.2v2.45h1.33c1,0,1.52-0.46,1.52-1.23    S89.54,131.13,88.54,131.13z"
   id="path21" />
		<path
   class="st1"
   d="M98.21,134.88h-3.07l-0.61,1.42h-1.18l2.76-6.14h1.12l2.77,6.14h-1.19L98.21,134.88z M97.83,133.99    l-1.16-2.68l-1.15,2.68H97.83z"
   id="path22" />
		<path
   class="st1"
   d="M103.49,131.13h-2.04v-0.96h5.21v0.96h-2.04v5.18h-1.14V131.13z"
   id="path23" />
		<path
   class="st1"
   d="M113.89,135.35v0.96h-4.61v-6.14h4.48v0.96h-3.34v1.6h2.97v0.94h-2.97v1.69H113.89z"
   id="path24" />
		<path
   class="st1"
   d="M116.91,130.16h2.69c1.99,0,3.35,1.23,3.35,3.07c0,1.84-1.36,3.07-3.35,3.07h-2.69V130.16z M119.54,135.34    c1.37,0,2.25-0.83,2.25-2.11c0-1.27-0.89-2.11-2.25-2.11h-1.49v4.21H119.54z"
   id="path25" />
		<path
   class="st1"
   d="M129.57,135.65l0.4-0.89c0.49,0.39,1.27,0.68,2.03,0.68c0.96,0,1.36-0.34,1.36-0.8    c0-1.33-3.65-0.46-3.65-2.74c0-0.99,0.79-1.83,2.47-1.83c0.74,0,1.51,0.19,2.04,0.54l-0.36,0.89c-0.55-0.33-1.16-0.48-1.69-0.48    c-0.95,0-1.33,0.37-1.33,0.83c0,1.31,3.64,0.46,3.64,2.71c0,0.98-0.8,1.83-2.48,1.83C131.03,136.39,130.08,136.09,129.57,135.65z"
   id="path26" />
		<path
   class="st1"
   d="M141.96,135.35v0.96h-4.61v-6.14h4.48v0.96h-3.34v1.6h2.96v0.94h-2.96v1.69H141.96z"
   id="path27" />
		<path
   class="st1"
   d="M149,136.3l-1.25-1.8c-0.08,0.01-0.16,0.01-0.24,0.01h-1.39v1.79h-1.14v-6.14h2.53    c1.61,0,2.61,0.82,2.61,2.18c0,0.93-0.47,1.61-1.31,1.94l1.41,2.02H149z M147.46,131.13h-1.33v2.45h1.33c1,0,1.52-0.46,1.52-1.23    S148.46,131.13,147.46,131.13z"
   id="path28" />
		<path
   class="st1"
   d="M158.77,130.16l-2.68,6.14h-1.12l-2.68-6.14h1.24l2.04,4.74l2.06-4.74H158.77z"
   id="path29" />
		<path
   class="st1"
   d="M161.17,130.16h1.14v6.14h-1.14V130.16z"
   id="path30" />
		<path
   class="st1"
   d="M165.28,133.23c0-1.83,1.4-3.16,3.29-3.16c1,0,1.86,0.36,2.43,1.03l-0.74,0.69c-0.45-0.48-1-0.72-1.64-0.72    c-1.27,0-2.19,0.9-2.19,2.16c0,1.26,0.92,2.16,2.19,2.16c0.64,0,1.19-0.24,1.64-0.73l0.74,0.7c-0.57,0.67-1.43,1.03-2.44,1.03    C166.68,136.39,165.28,135.07,165.28,133.23z"
   id="path31" />
		<path
   class="st1"
   d="M178.46,135.35v0.96h-4.61v-6.14h4.48v0.96h-3.34v1.6h2.96v0.94h-2.96v1.69H178.46z"
   id="path32" />
		<path
   class="st1"
   d="M180.96,135.65l0.4-0.89c0.49,0.39,1.27,0.68,2.03,0.68c0.96,0,1.36-0.34,1.36-0.8    c0-1.33-3.65-0.46-3.65-2.74c0-0.99,0.79-1.83,2.47-1.83c0.74,0,1.51,0.19,2.04,0.54l-0.36,0.89c-0.55-0.33-1.16-0.48-1.69-0.48    c-0.95,0-1.33,0.37-1.33,0.83c0,1.31,3.64,0.46,3.64,2.71c0,0.98-0.8,1.83-2.48,1.83C182.43,136.39,181.47,136.09,180.96,135.65z"
   id="path33" />
		<path
   class="st1"
   d="M192.93,130.16h1.14v5.18h3.21v0.96h-4.35V130.16z"
   id="path34" />
		<path
   class="st1"
   d="M199.93,130.16h1.14v5.18h3.21v0.96h-4.35V130.16z"
   id="path35" />
		<path
   class="st1"
   d="M206.39,133.23c0-1.83,1.4-3.16,3.29-3.16c1,0,1.86,0.36,2.43,1.03l-0.74,0.69c-0.45-0.48-1-0.72-1.64-0.72    c-1.27,0-2.19,0.9-2.19,2.16c0,1.26,0.92,2.16,2.19,2.16c0.64,0,1.19-0.24,1.64-0.73l0.74,0.7c-0.57,0.67-1.43,1.03-2.44,1.03    C207.79,136.39,206.39,135.07,206.39,133.23z"
   id="path36" />
	</g>
</g>
</svg>
