<?xml version="1.0" encoding="utf-8"?>
<!-- Generator: Adobe Illustrator 24.3.0, SVG Export Plug-In . SVG Version: 6.00 Build 0)  -->
<svg version="1.1" id="Layer_1" xmlns="http://www.w3.org/2000/svg" xmlns:xlink="http://www.w3.org/1999/xlink" x="0px" y="0px"
	 viewBox="0 0 250 150" style="enable-background:new 0 0 250 150;" xml:space="preserve">
<style type="text/css">
	.st0{fill:url(#SVGID_1_);}
	.st1{fill:#1C3866;}
	.st2{fill:#0A6FB7;}
</style>
<g>
	<g>
		<path d="M132.89,40.5c-0.01-5.61,4.21-9.9,9.79-9.97c5.38-0.06,10.02,4.41,10.14,9.78c0.13,5.87-4.08,10.26-9.82,10.24
			C137.24,50.53,132.9,46.21,132.89,40.5z"/>
		<linearGradient id="SVGID_1_" gradientUnits="userSpaceOnUse" x1="142.9621" y1="35.602" x2="142.5412" y2="55.5253">
			<stop  offset="0" style="stop-color:#0A6FB7"/>
			<stop  offset="1" style="stop-color:#1C3866"/>
		</linearGradient>
		<path class="st0" d="M132.89,40.5c-0.01-5.61,4.21-9.9,9.79-9.97c5.38-0.06,10.02,4.41,10.14,9.78
			c0.13,5.87-4.08,10.26-9.82,10.24C137.24,50.53,132.9,46.21,132.89,40.5z"/>
	</g>
	<path class="st1" d="M169.27,22.09c1.12,2.86,1.75,5.97,1.75,9.23c0,12.61-9.24,23.07-21.33,24.96c-1.67,0.34-3.46,0.44-5.37,0.26
		c-3.76-0.21-7.31-1.25-10.45-2.93c-2.13-0.83-4.23-1.73-6.34-2.59c-6.92-2.82-13.89-3.82-21.57-1.01c0.96,0.34,1.52,0.56,2.1,0.73
		c16.85,4.94,24.44,19.68,18.65,36.23c-0.86,2.45-1.81,4.86-3.02,8.12c14.72-7.98,27.3-17.3,37.08-30.04
		c6.49-8.46,10.68-17.91,11.31-28.66C172.37,31.17,171.36,26.28,169.27,22.09z"/>
	<path class="st2" d="M167.81,21.12c-2.67-5.36-7.1-9.58-12.8-11.93c-9.36-3.86-20.43-0.9-28.07,7.51c-0.99,1.09-1.87,2.27-2.95,3.6
		c-0.6-0.86-1.04-1.46-1.45-2.06c-0.08-0.11-0.16-0.22-0.24-0.33c-8.85-12.65-25.84-14.09-36.7-3.01
		c-8.4,8.57-10.09,22.08-4.37,34.61c5.05,11.06,13.41,19.46,22.26,27.39c4.98,4.46,10.85,9.4,15.77,14.53c0.71,0.74,3,3.71,3,3.71
		c0.44-1.01,0.67-5.64-0.11-7.89c-0.94-2.68-3.87-5.12-4.74-5.94c-7.24-6.89-13.38-12.98-20.14-20.31
		c-6.61-7.16-11.8-15.32-12.24-25.64C84.46,22,95.38,12.16,107.8,15.06c5.18,1.21,8.95,4.43,12.2,8.35c0.33,0.4,0.67,0.81,0.99,1.23
		c1.16,1.49,2.31,2.99,3.35,4.34c2.66-3.07,4.81-6.15,7.53-8.58c12.2-10.9,27.5-5.93,31.06,10.02c0.47,2.08,0.47,4.33,0.3,6.48
		c-0.64,7.9-5.94,16.59-15,18.42c12.08-1.89,21.33-12.35,21.33-24.96C169.56,27.09,168.94,23.98,167.81,21.12z"/>
</g>
<g>
	<g>
		<path class="st1" d="M47.45,117.48h-7.88l-1.5,3.63h-4.02l7.56-16.96h3.88l7.58,16.96h-4.12L47.45,117.48z M46.22,114.5L43.53,108
			l-2.69,6.49H46.22z"/>
		<path class="st1" d="M54.85,104.15h3.93v13.76h8.51v3.2H54.85V104.15z"/>
		<path class="st1" d="M69.48,104.15h3.93v13.76h8.51v3.2H69.48V104.15z"/>
		<path class="st1" d="M90.52,115.1v6.01h-3.93v-6.06l-6.57-10.9h4.17l4.53,7.54l4.53-7.54h3.85L90.52,115.1z"/>
		<path class="st1" d="M116.37,122.93c-1.11,1.36-2.71,2.08-4.58,2.08c-2.52,0-4.29-0.92-6.91-3.68c-4.65-0.58-7.92-4.09-7.92-8.7
			c0-5.04,3.93-8.77,9.28-8.77c5.33,0,9.28,3.71,9.28,8.77c0,3.97-2.45,7.12-6.06,8.29c0.82,0.87,1.55,1.19,2.4,1.19
			c1.04,0,1.96-0.41,2.76-1.26L116.37,122.93z M106.24,118.06c3.03,0,5.31-2.21,5.31-5.43s-2.28-5.43-5.31-5.43
			s-5.31,2.21-5.31,5.43S103.21,118.06,106.24,118.06z"/>
		<path class="st1" d="M118.34,113.65v-9.5h3.93v9.35c0,3.22,1.41,4.56,3.78,4.56c2.4,0,3.78-1.33,3.78-4.56v-9.35h3.88v9.5
			c0,4.99-2.86,7.75-7.68,7.75S118.34,118.64,118.34,113.65z"/>
		<path class="st1" d="M150.71,117.96v3.15h-13.13v-16.96h12.82v3.15h-8.92v3.68h7.88v3.05h-7.88v3.92H150.71z"/>
		<path class="st1" d="M159.63,112.63c0-5.11,3.92-8.77,9.21-8.77c2.93,0,5.38,1.07,6.98,3l-2.52,2.33
			c-1.14-1.31-2.57-1.99-4.26-1.99c-3.17,0-5.43,2.23-5.43,5.43c0,3.2,2.25,5.43,5.43,5.43c1.7,0,3.13-0.68,4.26-2.01l2.52,2.33
			c-1.6,1.96-4.05,3.03-7,3.03C163.56,121.4,159.63,117.74,159.63,112.63z"/>
		<path class="st1" d="M189.29,117.48h-7.88l-1.5,3.63h-4.02l7.56-16.96h3.88l7.58,16.96h-4.12L189.29,117.48z M188.06,114.5
			l-2.69-6.49l-2.69,6.49H188.06z"/>
		<path class="st1" d="M207.49,121.11l-3.27-4.72h-0.19h-3.42v4.72h-3.93v-16.96h7.34c4.53,0,7.37,2.35,7.37,6.16
			c0,2.54-1.28,4.41-3.49,5.35l3.8,5.45H207.49z M203.81,107.35h-3.2v5.91h3.2c2.4,0,3.61-1.12,3.61-2.96
			C207.42,108.44,206.21,107.35,203.81,107.35z"/>
		<path class="st1" d="M227.63,117.96v3.15H214.5v-16.96h12.82v3.15h-8.92v3.68h7.88v3.05h-7.88v3.92H227.63z"/>
	</g>
	<g>
		<path class="st1" d="M49.49,130.16h1.14v6.14h-1.14V130.16z"/>
		<path class="st1" d="M59.5,130.16v6.14h-0.94l-3.39-4.16v4.16h-1.13v-6.14h0.94l3.39,4.16v-4.16H59.5z"/>
		<path class="st1" d="M64.15,131.13h-2.04v-0.96h5.21v0.96h-2.04v5.18h-1.14V131.13z"/>
		<path class="st1" d="M74.54,135.35v0.96h-4.61v-6.14h4.48v0.96h-3.34v1.6h2.97v0.94h-2.97v1.69H74.54z"/>
		<path class="st1" d="M81.73,133.16h1.08v2.45c-0.64,0.52-1.54,0.78-2.4,0.78c-1.9,0-3.31-1.33-3.31-3.16
			c0-1.83,1.4-3.16,3.33-3.16c1.03,0,1.89,0.34,2.47,1l-0.72,0.7c-0.48-0.48-1.04-0.7-1.69-0.7c-1.31,0-2.23,0.89-2.23,2.16
			c0,1.25,0.92,2.16,2.22,2.16c0.44,0,0.87-0.09,1.26-0.32V133.16z"/>
		<path class="st1" d="M90.08,136.3l-1.25-1.8c-0.08,0.01-0.16,0.01-0.24,0.01H87.2v1.79h-1.14v-6.14h2.53
			c1.61,0,2.61,0.82,2.61,2.18c0,0.93-0.47,1.61-1.31,1.94l1.41,2.02H90.08z M88.54,131.13H87.2v2.45h1.33c1,0,1.52-0.46,1.52-1.23
			S89.54,131.13,88.54,131.13z"/>
		<path class="st1" d="M98.21,134.88h-3.07l-0.61,1.42h-1.18l2.76-6.14h1.12l2.77,6.14h-1.19L98.21,134.88z M97.83,133.99
			l-1.16-2.68l-1.15,2.68H97.83z"/>
		<path class="st1" d="M103.49,131.13h-2.04v-0.96h5.21v0.96h-2.04v5.18h-1.14V131.13z"/>
		<path class="st1" d="M113.89,135.35v0.96h-4.61v-6.14h4.48v0.96h-3.34v1.6h2.97v0.94h-2.97v1.69H113.89z"/>
		<path class="st1" d="M116.91,130.16h2.69c1.99,0,3.35,1.23,3.35,3.07c0,1.84-1.36,3.07-3.35,3.07h-2.69V130.16z M119.54,135.34
			c1.37,0,2.25-0.83,2.25-2.11c0-1.27-0.89-2.11-2.25-2.11h-1.49v4.21H119.54z"/>
		<path class="st1" d="M129.57,135.65l0.4-0.89c0.49,0.39,1.27,0.68,2.03,0.68c0.96,0,1.36-0.34,1.36-0.8
			c0-1.33-3.65-0.46-3.65-2.74c0-0.99,0.79-1.83,2.47-1.83c0.74,0,1.51,0.19,2.04,0.54l-0.36,0.89c-0.55-0.33-1.16-0.48-1.69-0.48
			c-0.95,0-1.33,0.37-1.33,0.83c0,1.31,3.64,0.46,3.64,2.71c0,0.98-0.8,1.83-2.48,1.83C131.03,136.39,130.08,136.09,129.57,135.65z"
			/>
		<path class="st1" d="M141.96,135.35v0.96h-4.61v-6.14h4.48v0.96h-3.34v1.6h2.96v0.94h-2.96v1.69H141.96z"/>
		<path class="st1" d="M149,136.3l-1.25-1.8c-0.08,0.01-0.16,0.01-0.24,0.01h-1.39v1.79h-1.14v-6.14h2.53
			c1.61,0,2.61,0.82,2.61,2.18c0,0.93-0.47,1.61-1.31,1.94l1.41,2.02H149z M147.46,131.13h-1.33v2.45h1.33c1,0,1.52-0.46,1.52-1.23
			S148.46,131.13,147.46,131.13z"/>
		<path class="st1" d="M158.77,130.16l-2.68,6.14h-1.12l-2.68-6.14h1.24l2.04,4.74l2.06-4.74H158.77z"/>
		<path class="st1" d="M161.17,130.16h1.14v6.14h-1.14V130.16z"/>
		<path class="st1" d="M165.28,133.23c0-1.83,1.4-3.16,3.29-3.16c1,0,1.86,0.36,2.43,1.03l-0.74,0.69c-0.45-0.48-1-0.72-1.64-0.72
			c-1.27,0-2.19,0.9-2.19,2.16c0,1.26,0.92,2.16,2.19,2.16c0.64,0,1.19-0.24,1.64-0.73l0.74,0.7c-0.57,0.67-1.43,1.03-2.44,1.03
			C166.68,136.39,165.28,135.07,165.28,133.23z"/>
		<path class="st1" d="M178.46,135.35v0.96h-4.61v-6.14h4.48v0.96h-3.34v1.6h2.96v0.94h-2.96v1.69H178.46z"/>
		<path class="st1" d="M180.96,135.65l0.4-0.89c0.49,0.39,1.27,0.68,2.03,0.68c0.96,0,1.36-0.34,1.36-0.8
			c0-1.33-3.65-0.46-3.65-2.74c0-0.99,0.79-1.83,2.47-1.83c0.74,0,1.51,0.19,2.04,0.54l-0.36,0.89c-0.55-0.33-1.16-0.48-1.69-0.48
			c-0.95,0-1.33,0.37-1.33,0.83c0,1.31,3.64,0.46,3.64,2.71c0,0.98-0.8,1.83-2.48,1.83C182.43,136.39,181.47,136.09,180.96,135.65z"
			/>
		<path class="st1" d="M192.93,130.16h1.14v5.18h3.21v0.96h-4.35V130.16z"/>
		<path class="st1" d="M199.93,130.16h1.14v5.18h3.21v0.96h-4.35V130.16z"/>
		<path class="st1" d="M206.39,133.23c0-1.83,1.4-3.16,3.29-3.16c1,0,1.86,0.36,2.43,1.03l-0.74,0.69c-0.45-0.48-1-0.72-1.64-0.72
			c-1.27,0-2.19,0.9-2.19,2.16c0,1.26,0.92,2.16,2.19,2.16c0.64,0,1.19-0.24,1.64-0.73l0.74,0.7c-0.57,0.67-1.43,1.03-2.44,1.03
			C207.79,136.39,206.39,135.07,206.39,133.23z"/>
	</g>
</g>
</svg>
